<?xml version="1.0" encoding="UTF-8" standalone="no"?>
<!-- Created with Inkscape (http://www.inkscape.org/) -->

<svg
   width="89.495476mm"
   height="49.849476mm"
   viewBox="0 0 89.495476 49.849476"
   version="1.1"
   id="svg1"
   xmlns="http://www.w3.org/2000/svg"
   xmlns:svg="http://www.w3.org/2000/svg">
  <defs
     id="defs1">
    <linearGradient
       id="swatch9">
      <stop
         style="stop-color:#0000ff;stop-opacity:1;"
         offset="0"
         id="stop9" />
    </linearGradient>
  </defs>
  <g
     id="layer1"
     transform="translate(-49.675727,-546.60364)">
    <g
       id="g14">
      <path
         id="path12-2"
         style="font-style:normal;font-variant:normal;font-weight:normal;font-stretch:normal;font-size:35.2777px;font-family:'Cinzel Decorative';-inkscape-font-specification:'Cinzel Decorative';writing-mode:lr-tb;direction:ltr;fill:#000000;stroke:#000000;stroke-width:0.264999"
         d="m 51.360585,561.81886 c -0.39981,0 -0.91736,0.0824 -1.55236,0.24702 v 0.35295 c 0.28222,-0.0235 0.55262,-0.0351 0.81132,-0.0351 2.89277,0 5.37437,2.03429 7.44399,6.10298 l -2.2226,19.26136 c -0.1176,0.635 -0.42337,1.15255 -0.91726,1.55236 -0.47037,0.3763 -1.0233,0.56431 -1.6583,0.56431 h -0.5643 v 0.35295 h 6.84402 v -0.3173 h -0.56482 c -0.35278,0 -0.6818,-0.15314 -0.98754,-0.45888 -0.28222,-0.30574 -0.39998,-0.65852 -0.35295,-1.05834 l 1.55236,-17.53278 9.13691,19.86132 h 0.20051 v -5.04568 l -8.20829,-17.77928 c -0.37629,-0.77611 -0.88222,-1.5873 -1.51722,-2.43396 -0.37629,-0.47037 -0.77607,-0.89391 -1.19941,-1.27021 -0.42333,-0.39981 -0.91712,-0.77583 -1.48156,-1.12861 -0.56444,-0.3763 -1.16437,-0.65883 -1.79937,-0.84698 -0.635,-0.18814 -1.18741,-0.29377 -1.65778,-0.31729 -0.47037,-0.047 -0.90554,-0.0708 -1.30535,-0.0708 z" />
      <text
         xml:space="preserve"
         style="font-style:normal;font-variant:normal;font-weight:normal;font-stretch:normal;font-size:35.2777px;font-family:Cinzel;-inkscape-font-specification:Cinzel;writing-mode:lr-tb;direction:ltr;fill:#000000;fill-opacity:1;stroke:#000000;stroke-width:0.25;stroke-dasharray:none;stroke-opacity:1"
         x="90.680466"
         y="589.67065"
         id="text16"><tspan
           id="tspan16"
           style="stroke-width:0.25"
           x="90.680466"
           y="589.67065">rn</tspan></text>
      <path
         id="path21-3"
         style="fill:#000000;fill-opacity:1;stroke:#000000;stroke-width:0.252906;stroke-dasharray:none;stroke-opacity:1"
         d="m 101.81973,546.83277 c -9.026332,4.66735 -24.928743,9.91567 -38.159702,12.57628 24.561732,-1.34051 38.159702,-8.8747 38.159702,-8.8747 z" />
      <path
         id="path25-4"
         style="fill:#1692fb;fill-opacity:1;stroke:#1692fb;stroke-width:0.252906;stroke-dasharray:none;stroke-opacity:1"
         d="m 102.05695,550.54319 c 0,0 10.68654,6.59941 15.8078,7.99661 -5.25152,-3.23083 -11.05574,-7.55491 -15.80469,-11.6599 z" />
      <rect
         style="fill:#000000;fill-opacity:1;fill-rule:evenodd;stroke-width:0.200892"
         id="rect21-4"
         width="2.9519236"
         height="4.1924419"
         x="88.963989"
         y="548.41736" />
      <rect
         style="fill:#878789;fill-opacity:1;fill-rule:evenodd;stroke-width:0.264583"
         id="rect25-0"
         width="1.4593325"
         height="1.4593325"
         x="100.20494"
         y="553.20013" />
      <rect
         style="fill:#878789;fill-opacity:1;fill-rule:evenodd;stroke-width:0.264583"
         id="rect25-8-6"
         width="1.4593325"
         height="1.4593325"
         x="102.16414"
         y="553.20013" />
      <rect
         style="fill:#878789;fill-opacity:1;fill-rule:evenodd;stroke-width:0.264583"
         id="rect25-86-6"
         width="1.4593325"
         height="1.4593325"
         x="100.20494"
         y="555.12903" />
      <rect
         style="fill:#878789;fill-opacity:1;fill-rule:evenodd;stroke-width:0.264583"
         id="rect25-8-0-1"
         width="1.4593325"
         height="1.4593325"
         x="102.16414"
         y="555.12903" />
      <g
         id="g1"
         transform="translate(-8.1168,-163.92059)">
        <path
           id="path1"
           style="font-style:normal;font-variant:normal;font-weight:normal;font-stretch:normal;font-size:35.2777px;font-family:'Cinzel Decorative';-inkscape-font-specification:'Cinzel Decorative';writing-mode:lr-tb;direction:ltr;fill:#000000;fill-opacity:1;stroke:#000000;stroke-width:0.264999;stroke-opacity:1"
           d="m 83.057226,725.73945 c -1.41095,8e-5 -2.880523,0.31748 -4.409033,0.9524 l 0.10542,0.35295 c 0.96426,-0.35278 1.86996,-0.52917 2.71663,-0.52917 1.88148,0 3.45736,0.90519 4.72736,2.71612 l -8.838221,20.48918 v 4.90771 c 0.0292,-0.12837 0.0705,-0.25669 0.124024,-0.38498 l 4.480347,-10.51254 h 0.137459 l 0.396875,-1.05833 h -0.145728 l 4.726844,-11.92382 c 0.44685,0.8937 0.940643,2.12843 1.481563,3.70416 l 2.787427,8.21966 h -0.120406 l 0.3545,1.05833 h 0.117822 l 1.376144,4.02146 c 1.4111,4.18629 3.127477,7.30268 5.150067,9.34878 0.94074,0.98778 1.95207,1.75196 3.03392,2.29289 1.08185,0.56444 2.16395,0.84697 3.2458,0.84697 1.08185,0 2.18719,-0.18853 3.31608,-0.56482 l -0.0351,-0.35243 c -0.47037,0.0941 -1.01168,0.14107 -1.62316,0.14107 -0.58796,0 -1.34052,-0.16477 -2.25774,-0.49402 -0.91722,-0.32926 -1.79917,-0.90543 -2.64584,-1.72858 -0.84666,-0.79963 -1.78724,-2.0106 -2.82205,-3.63337 -1.01129,-1.59926 -2.01101,-3.76345 -2.998779,-6.49159 L 91.135843,734.9115 c -0.87019,-2.46944 -1.587367,-4.17419 -2.151807,-5.11493 -0.84667,-1.36407 -1.61137,-2.2814 -2.2934,-2.75177 -1.2463,-0.87005 -2.457093,-1.30522 -3.632853,-1.30535 z" />
        <path
           id="text7-8"
           style="font-style:normal;font-variant:normal;font-weight:normal;font-stretch:normal;font-size:35.2777px;font-family:'Cinzel Decorative';-inkscape-font-specification:'Cinzel Decorative';writing-mode:lr-tb;direction:ltr;fill:#1692fb;fill-opacity:1;stroke:#1692fb;stroke-width:0.262237;stroke-opacity:1"
           d="m 91.423883,743.73257 -0.356356,-1.06179 H 82.63957 l -0.400818,1.06179 z" />
      </g>
    </g>
  </g>
</svg>
